inDegrees=no
num_controls=7
num_derivatives=13
num_iterations=108
num_multipliers=7
num_parameters=0
num_slacks=7
num_states=26
objective=0.455011
objective_accelerations=0.045984
objective_balance=0.000905
objective_effort=0.036237
objective_height=0.365873
objective_ligament=0.006012
solver_duration=1251.124270
status=Solve_Succeeded
success=true
DataType=double
version=3
OpenSimVersion=4.5
endheader
time	/jointset/ground_pelvis/pelvis_tilt/value	/jointset/ground_pelvis/pelvis_tx/value	/jointset/ground_pelvis/pelvis_ty/value	/jointset/hip_r/hip_flexion_r/value	/jointset/hip_r/hip_adduction_r/value	/jointset/hip_r/hip_rotation_r/value	/jointset/back/lumbar_extension/value	/jointset/patellofemoral_r/patellar_flexion_r/value	/jointset/knee_r/knee_flexion_r/value	/jointset/knee_r/knee_adduction_r/value	/jointset/knee_r/knee_rotation_r/value	/jointset/ankle_r/ankle_angle_r/value	/jointset/subtalar_r/subtalar_angle_r/value	/jointset/ground_pelvis/pelvis_tilt/speed	/jointset/ground_pelvis/pelvis_tx/speed	/jointset/ground_pelvis/pelvis_ty/speed	/jointset/hip_r/hip_flexion_r/speed	/jointset/hip_r/hip_adduction_r/speed	/jointset/hip_r/hip_rotation_r/speed	/jointset/back/lumbar_extension/speed	/jointset/patellofemoral_r/patellar_flexion_r/speed	/jointset/knee_r/knee_flexion_r/speed	/jointset/knee_r/knee_adduction_r/speed	/jointset/knee_r/knee_rotation_r/speed	/jointset/ankle_r/ankle_angle_r/speed	/jointset/subtalar_r/subtalar_angle_r/speed	/forceset/tau_hip_flexion_r	/forceset/tau_hip_adduction_r	/forceset/tau_hip_rotation_r	/forceset/tau_knee_flexion_r	/forceset/tau_ankle_angle_r	/forceset/tau_subtalar_angle_r	/forceset/tau_lumbar_extension	lambda_cid13_p0	lambda_cid14_p0	lambda_cid14_p1	lambda_cid14_p2	lambda_cid14_p3	lambda_cid14_p4	lambda_cid14_p5	/jointset/ground_pelvis/pelvis_tilt/accel	/jointset/ground_pelvis/pelvis_tx/accel	/jointset/ground_pelvis/pelvis_ty/accel	/jointset/hip_r/hip_flexion_r/accel	/jointset/hip_r/hip_adduction_r/accel	/jointset/hip_r/hip_rotation_r/accel	/jointset/back/lumbar_extension/accel	/jointset/patellofemoral_r/patellar_flexion_r/accel	/jointset/knee_r/knee_flexion_r/accel	/jointset/knee_r/knee_adduction_r/accel	/jointset/knee_r/knee_rotation_r/accel	/jointset/ankle_r/ankle_angle_r/accel	/jointset/subtalar_r/subtalar_angle_r/accel	gamma_cid13_p0	gamma_cid14_p0	gamma_cid14_p1	gamma_cid14_p2	gamma_cid14_p3	gamma_cid14_p4	gamma_cid14_p5
1.5	-0.06261569571614595	0.03876808741017016	0.8238235811749861	0.7676737475943806	-0.235644653686844	-0.1012577502011823	-0.6203873961245264	0.9244838246784961	0.9244838246785045	0.001496988703717091	0.1745326120219987	0.3031825068876288	0.1218471902148067	0.4165771113026248	0.2103168042030022	0.4777554394733089	-1.898466643877257	0.04350179952087265	-0.3620692375141805	0.7972018479424142	-1.922120524669956	-1.922120524669962	0.2357558495682687	6.077598751609839e-06	-0.5231467858165211	-0.1257602881992952	-0.1450444969260533	0.002559092805444241	0.02565327211359232	-0.3126520664815065	0.0166270025165563	-0.01026956319325961	0.2035764091715559	-9.768964279861271	-37.42553018796114	-10.14619839421489	1.049407140561543	-2.472773292605612	-632.3102613170643	60.49874085993375	0.0700068257480162	0.5142683362820877	-0.4729276166893409	-0.9000777906796861	-0.03643876964586377	-0.05470854967098503	1.688786125586085	-1.316540923980865	-1.316540923980863	0.7988483754940122	-0.0474186380397657	-0.6216659064853469	-0.1913871230060179	5.434477335565744e-08	-1.163212064231641e-07	-2.050187294597491e-06	-4.8024659780373e-07	2.683497743139728e-07	1.162168918689824e-07	-1.335878976388396e-06
1.51	-0.05844678678455213	0.04089673665607407	0.8285765166108222	0.7486461786570551	-0.2352118478526133	-0.1048837199865882	-0.612332279268053	0.9051991128180445	0.9051991128180547	0.003892894737408433	0.1745324340099623	0.2979206324931749	0.1205797928348294	0.4171456711356286	0.21538647344728	0.4727315936840181	-1.906796124268876	0.04304590940574785	-0.3631349399761391	0.8137107571418486	-1.934554334256478	-1.934554334256487	0.243392571983065	-3.31389909434445e-05	-0.529146692929238	-0.1277019651496703	-0.138317930287552	0.0008484576206086713	0.02536489725381695	-0.3087333149438428	0.01834032395854895	-0.01076772873516951	0.1972984605203341	-10.79347516813444	-36.61127736775031	-10.08220933642373	0.8818356185692722	-2.588890331616999	-627.8206120462786	60.43899205523969	0.04141181400356127	0.4993830868910131	-0.5321048684564338	-0.761751125501253	-0.05240880449877154	-0.1339790267032444	1.615328385589142	-1.16667963215399	-1.166679632154452	0.7408990797725901	0.01892194632201857	-0.5768927728583498	-0.1933536970466731	3.70587182790435e-08	-1.305529318358884e-07	-1.94728115613314e-06	-6.228697113405436e-07	2.648124729454766e-07	9.328091227947493e-08	-1.227951044966038e-06
1.52	-0.05427396600424212	0.04307529596809884	0.8332762152270837	0.7295428413233946	-0.2347840498539445	-0.1085206423830622	-0.6041153963058916	0.8857980871304952	0.8857980871305057	0.006364130976310136	0.1745320828551812	0.292601211095755	0.1192934195421497	0.4173594810457114	0.2202988174271743	0.4671080755584273	-1.913620323144425	0.04250023240850277	-0.3642597597278949	0.8295550690799637	-1.945383290089643	-1.945383290089655	0.2508218906098669	-2.85509503824882e-05	-0.534656186409695	-0.1295554707397819	-0.1315913636490476	-0.0008621775642238842	0.02507652239403281	-0.3048145634061794	0.02005364540054235	-0.01126589427707462	0.1910205118691149	-11.81895759713135	-35.79928985920422	-10.0175726548719	0.7129690257990589	-2.706449569933175	-623.3626012395482	60.39183754202033	-0.0009431588361259799	0.4828032834053656	-0.592862083949342	-0.5990214874654598	-0.05439614606991509	-0.06653200763039938	1.555866673322236	-0.9955701733093323	-0.9955701733093324	0.7573676178951124	-0.03865771198855845	-0.5235831800334393	-0.1737528509533238	2.721583369709654e-08	-1.428768003740761e-07	-1.923043560520871e-06	-7.383349251868815e-07	2.678148877888454e-07	7.798370197977996e-08	-1.167080923450253e-06
1.53	-0.05010082126233247	0.04530212901447848	0.8379167301287498	0.7103789043468433	-0.234362071106909	-0.1121691688511803	-0.5957435117682206	0.8662969106560088	0.8662969106560143	0.008908475256786489	0.1745319877917851	0.2872292179192527	0.1179891065954757	0.4172081873330477	0.2250346211085852	0.460900049686614	-1.918904960517644	0.04188220287601878	-0.3654324539331075	0.8446961165422664	-1.954569230755948	-1.954569230755946	0.2580277546673511	5.282324472721055e-06	-0.5396554758632907	-0.131289298065119	-0.1248169639519195	-0.002606871428028505	0.02471045638782773	-0.3010159727576354	0.02179086475385892	-0.01178939842516102	0.1846936867361527	-12.84241171397223	-34.9940817719136	-9.967079848956338	0.5485864479143368	-2.791580371881571	-619.0727001762247	60.34487420932676	-0.03143511525926439	0.4640499179958665	-0.6489877103687142	-0.4538920426763916	-0.06777293421983806	-0.1406377870069086	1.474365495921327	-0.837694754658816	-0.8376947546567141	0.699019666961026	0.02354885126240698	-0.4750024152845593	-0.1709432417952463	2.528131776573315e-08	-1.531735709830688e-07	-1.982391291688936e-06	-8.249448706120894e-07	2.777657511073208e-07	7.080268405051073e-08	-1.156209724960201e-06
1.54	-0.04593103198510422	0.04757533629916961	0.8424923217973834	0.6911699795604752	-0.233946725970675	-0.1158290221933581	-0.5872239884132789	0.8467123570265862	0.8467123570265856	0.01152424295129713	0.1745320600619453	0.2818098517307619	0.1166679062618541	0.4166883881092716	0.2295736650894746	0.4541234289519451	-1.922617885107911	0.04117351024824613	-0.3665251345399284	0.8590828325340496	-1.962058721076962	-1.962058721076946	0.2651065734162729	4.915760922005519e-06	-0.5441307888073638	-0.1329329481293099	-0.1180425642547885	-0.004351565291830377	0.02434439038161293	-0.2972173821090915	0.0235280841071763	-0.01231290257324272	0.1783668616031927	-13.85971720186826	-34.19175374935945	-9.916836517107743	0.3839534012470773	-2.873925041528787	-614.8211578068015	60.3048069945669	-0.07464426105855998	0.4434513433010383	-0.7065810565204678	-0.284678930874688	-0.07252876512764221	-0.05052928795208327	1.405000379218304	-0.6562801042511787	-0.6562801042511766	0.7319585561826085	-0.0454976796697365	-0.41878787812895	-0.1557173987241083	2.291011371265168e-08	-1.625928480700696e-07	-2.033764534548041e-06	-9.113695594747443e-07	2.857664102318069e-07	6.540580775983576e-08	-1.137598438204252e-06
1.55	-0.04176829337150584	0.0498928877646183	0.8469973761504183	0.6719318505359815	-0.2335388047376908	-0.1194997297096268	-0.5785645496394709	0.8270614519362315	0.827061451936232	0.01420976701974791	0.1745320962366662	0.2763484181173479	0.1153309181993887	0.4157959970448983	0.2338969083468461	0.4467992290667142	-1.924735301531402	0.04039943803007999	-0.3676084423599066	0.8726616488665087	-1.967827368689983	-1.967827368689975	0.2719678858185003	2.837705155914773e-06	-0.548063473778087	-0.1344430997581433	-0.1112032528481182	-0.006107741588762731	0.02389045767084711	-0.2936244212013896	0.02538382174256337	-0.01287553360559796	0.1719936416613604	-14.86760939714194	-33.37060241069043	-9.884966201106556	0.2275898414742901	-2.948086175912078	-610.8008044378329	60.26664482915339	-0.1060603389338843	0.4208618121710835	-0.7585593011105142	-0.1344070634528164	-0.08185246033077476	-0.1360248531497942	1.312831256137989	-0.4929215319900182	-0.4929215319911066	0.6583457054961936	0.02226963478939013	-0.3665837144932528	-0.1458820733577937	2.003576899759073e-08	-1.710011000121666e-07	-2.075949780007691e-06	-9.975808005588059e-07	2.915200949588707e-07	6.206457292232366e-08	-1.110069223663683e-06
1.56	-0.03761638343051182	0.0522524918616839	0.8514265445352835	0.6526807205341804	-0.2331390254289224	-0.1231810289689209	-0.5697736209031625	0.8073617074813141	0.8073617074813152	0.01696292983687229	0.1745320781314934	0.2708504426726368	0.113979385014956	0.4145226535882364	0.2379841914128564	0.4389462353180391	-1.92521808056955	0.03954512540512644	-0.3686434831450488	0.8853808250340984	-1.971826593989504	-1.971826593989502	0.2786343231508626	-5.940217832696512e-06	-0.5514391550667807	-0.1358419725227703	-0.1043639414414457	-0.007863917885693355	0.02343652496007985	-0.2900314602936873	0.02723955937795097	-0.01343816463795039	0.1656204217195299	-15.86359156367918	-32.55212912914247	-9.854219140266951	0.0721536394903553	-3.017744815415016	-606.8147825271351	60.22734658391288	-0.150834739516254	0.3962593050287876	-0.8123398292093351	0.04224854619404075	-0.08857684648512144	-0.04087588098488765	1.233072346244479	-0.3023956415510655	-0.3023956415510654	0.6929835422095459	-0.04683765311423359	-0.3073871417230968	-0.1334616258828376	1.679346537511106e-08	-1.787604060118731e-07	-2.109402532596672e-06	-1.084029795607015e-06	2.956907102544594e-07	5.956584216466998e-08	-1.073240247643978e-06
1.57	-0.03347910606790453	0.05465172223825033	0.8557746244659596	0.6334329940685652	-0.2327480473811031	-0.1268726954473813	-0.5608599910901629	0.7876308742469939	0.7876308742469896	0.01978139788623704	0.174532028770798	0.2653215553151499	0.1126146462542701	0.412867847831101	0.241815340297602	0.430589088925687	-1.924043003521935	0.03864187826686385	-0.3696821833966785	0.8971848628245365	-1.974031710261216	-1.974031710261208	0.2850191353217409	-9.957286088830082e-07	-0.5542404164767553	-0.1370799206030096	-0.09749466578973612	-0.009640574488416397	0.02288643374994082	-0.2866478127831248	0.02916371235091786	-0.01399938696761669	0.1592396316165502	-16.84573065939409	-31.73225154398865	-9.823659986992958	-0.08205914106927013	-3.069983513203084	-603.1256668759301	60.23132639900745	-0.1825748333415255	0.3696209685640192	-0.8594898703915288	0.1977391707880028	-0.09284122964755934	-0.1342293805123849	1.130028284288097	-0.1333204198946105	-0.1333204198936648	0.6048677227733742	0.02432857208413473	-0.2517526804745119	-0.1155632908385154	1.309121311835803e-08	-1.857085295835915e-07	-2.131939669097316e-06	-1.170775983110409e-06	2.978824887607043e-07	5.81202415068393e-08	-1.024786569775354e-06
1.58	-0.02936033103077368	0.05708787976133755	0.8600367153674835	0.6142055387507758	-0.2323664303210969	-0.1305745213850098	-0.5518331291414899	0.7678872396899745	0.7678872396899638	0.02266244159096086	0.1745320624694219	0.2597676039355951	0.111238207634433	0.4108221884927902	0.2453696207170149	0.4217484294875994	-1.92116385100461	0.0376729278425717	-0.3706753749787225	0.9080272521687589	-1.974386858529459	-1.974386858529445	0.2911494542224755	1.067164635276483e-05	-0.5564519594803247	-0.1381819443530105	-0.09062539013802486	-0.01141723109113796	0.02233634253979607	-0.2832641652725622	0.03108786532388522	-0.0145606092972805	0.1528588415135717	-17.81262389135112	-30.91430347038132	-9.795186521442227	-0.2339421021834966	-3.117071703100865	-599.4585907234259	60.22383037805335	-0.2290054557512875	0.3408856119621925	-0.909042438356463	0.3830636401361264	-0.1017175036910308	-0.03177414706772419	1.040742657001404	0.06759795914277496	0.06759795914277497	0.6420848881808126	-0.0454930759666613	-0.1894434604420532	-0.1062767598351824	1.021602183237985e-08	-1.918506269484776e-07	-2.156251589848446e-06	-1.253115890125145e-06	2.996722215134174e-07	5.711110853287247e-08	-9.743869389168043e-07
1.59	-0.02526395021620489	0.05955815105386104	0.8642080886324081	0.5950153884741539	-0.2319947282997807	-0.1342861160277837	-0.5427028436066107	0.7481493293032838	0.7481493293032732	0.02560335461995269	0.1745322771284486	0.2541945389595847	0.1098515820772866	0.4083866307600085	0.2486335537296434	0.4124547909563913	-1.91657443168685	0.03665750694037725	-0.3716166049869964	0.9178550680760157	-1.972875812421466	-1.972875812421469	0.2970028954629363	2.809984654179261e-05	-0.5580579620218945	-0.13911958226335	-0.08368640058235173	-0.01322462874708968	0.02169288546460662	-0.2802874273072618	0.03331531008550237	-0.01514417242697438	0.1464728060598221	-18.76346459481358	-30.0269364979055	-9.77025313879119	-0.3784168797977699	-3.216438869233818	-596.1930600554226	60.27320794974837	-0.2609603749149265	0.3115448686590008	-0.9502281524598184	0.5406151845728786	-0.1033411367721052	-0.1212832323979126	0.9275830479693612	0.2407674109839922	0.2407674109814569	0.5520718734447141	0.02444194642818396	-0.1306570080763317	-0.08447723795543013	8.46327043531034e-09	-1.968988316040913e-07	-2.182972146368091e-06	-1.329475845048133e-06	3.009163207434799e-07	5.669432455843511e-08	-9.213463718576401e-07
